<svg xmlns="http://www.w3.org/2000/svg" xmlns:xlink="http://www.w3.org/1999/xlink" viewBox="0 0 350 330">
    <defs>
        <circle id="helpPoint" cx="600" cy="600" r="1"/>
    </defs>

    <animate
        xlink:href="#helpPoint"
        id="animationDelay"
        attributeName="opacity"
        begin="7.2s"
        dur="0.1s"
        from="1"
        to="0"
        fill="freeze"
    />
    <animateTransform
        xlink:href="#firstScene"
        attributeName="transform"
        type="translate"
        begin="animationDelay.end"
        dur="0.3s"
        to="0"
        fill="freeze"
    />
    <animate
        xlink:href="#firstScene"
        id="firstSceneAppear"
        attributeName="opacity"
        begin="animationDelay.end"
        dur="0.3s"
        from="0"
        to="1"
        fill="freeze"
    />

    <g id="caseTopOpened" opacity="0">
        <path d="M253.93,232.11a5.69,5.69,0,1,0-5.69-5.69,5.69,5.69,0,0,0,5.69,5.69" fill="#a67ee5"/>
        <circle cx="253.93" cy="226.42" r="5.69" fill="none" stroke="#fff" stroke-miterlimit="10" stroke-width="2"/>
        <path d="M240.3,210.48H67.19a12,12,0,0,0-12,11.9V276a13,13,0,0,0,13,13h184V222.38a12,12,0,0,0-11.94-11.9" fill="#a67ee5"/>
        <path d="M240.3,210.48H67.19a12,12,0,0,0-12,11.9V276a13,13,0,0,0,13,13h184V222.38A12,12,0,0,0,240.3,210.48Z" fill="none" stroke="#fff" stroke-miterlimit="10" stroke-width="2"/>
        <path d="M70.24,289V225.49a15,15,0,0,1,15-15h0.5" fill="none" stroke="#fff" stroke-width="2"/>
        <animate
            attributeName="opacity"
            begin="firstSceneAppear.end + 0.2s"
            dur="0.01s"
            from="0"
            to="1"
            fill="freeze"
        />
    </g>

    <g id="firstScene" transform="translate(20 0)" opacity="0">
        <g id="caseTopClosed">
            <path d="M225.88,258.06H82.68a11.62,11.62,0,0,0-11.57,11.61v19.75H237.44V269.66a11.62,11.62,0,0,0-11.56-11.61" fill="#a67ee5"/>
            <path d="M225.88,258.06H82.68a11.62,11.62,0,0,0-11.57,11.61v19.75H237.44V269.66A11.62,11.62,0,0,0,225.88,258.06Z" fill="none" stroke="#fff" stroke-miterlimit="10" stroke-width="2"/>
            <path d="M267.11,258.06H119.23a11.81,11.81,0,0,0-11.93,11.61v19.75H279V269.66a11.81,11.81,0,0,0-11.93-11.61" fill="#a67ee5"/>
            <path d="M267.11,258.06H119.23a11.81,11.81,0,0,0-11.93,11.61v19.75H279V269.66A11.81,11.81,0,0,0,267.11,258.06Z" fill="none" stroke="#fff" stroke-miterlimit="10" stroke-width="2"/>
            <path d="M278.74,279.41a5.34,5.34,0,1,0-5.32-5.34,5.32,5.32,0,0,0,5.32,5.34" fill="#a67ee5"/>
            <ellipse cx="278.74" cy="274.07" rx="5.31" ry="5.34" fill="none" stroke="#fff" stroke-miterlimit="10" stroke-width="2"/>
            <path d="M277.62,269.66v9.75H266.89a5.72,5.72,0,0,1-5.71-5.73V258.06h4.88a11.61,11.61,0,0,1,11.56,11.61" fill="#a67ee5"/>
            <path d="M277.62,269.66v9.75H266.89a5.72,5.72,0,0,1-5.71-5.73V258.06h4.88A11.61,11.61,0,0,1,277.62,269.66Z" fill="none" stroke="#fff" stroke-miterlimit="10" stroke-width="2"/>
            <animate
                id="caseOpen"
                attributeName="opacity"
                begin="firstSceneAppear.end + 0.2s"
                dur="0.01s"
                from="1"
                to="0"
                fill="freeze"
            />
        </g>
        <g id="flowers" opacity="0">
            <path d="M180.73,277.8s8.3-74.59,39.71-90" fill="none" stroke="#fff" stroke-linecap="round" stroke-linejoin="round" stroke-width="2"/>
            <path d="M217.95,187.12l9.27-24.49a22,22,0,0,1,8.72,3,7.87,7.87,0,0,1,9.72,12.33,22.14,22.14,0,0,1,.86,9.18l-26,3.3a2.45,2.45,0,0,1-2.6-3.29" fill="#3b7bf2">
                <animateTransform
                    attributeName="transform"
                    type="rotate"
                    begin="caseOpen.end"
                    dur="0.3s"
                    values="40, 218, 187; 0, 218, 187;"
                    calcMode="linear"
                    fill="freeze"
                />
            </path>
            <path d="M178.24,287.63s6.89-44.68,37.95-56.53" fill="none" stroke="#fff" stroke-linecap="round" stroke-linejoin="round" stroke-width="2"/>
            <path d="M210.85,232l9-16.47a16.66,16.66,0,0,1,6.13,2.93,5.93,5.93,0,0,1,4-.42,5.67,5.67,0,0,1,4.26,6.85,5.54,5.54,0,0,1-2.29,3.23,15.1,15.1,0,0,1-.21,6.58l-19.34-.11a1.76,1.76,0,0,1-1.6-2.58" fill="#3b7bf2"/>
            <animate
                attributeName="opacity"
                begin="caseOpen.end"
                dur="0.01s"
                from="0"
                to="1"
                fill="freeze"
            />
            <animateTransform
                attributeName="transform"
                type="rotate"
                begin="caseOpen.end"
                dur="1.2s"
                values="64, 178, 289; -10, 178, 289; 7, 178, 289; -3, 178, 289; 2, 178, 289; 0, 178, 289;"
                calcMode="linear"
            />
        </g>
        <g id="leaves" opacity="0">
            <g id="bigLeaf">
                <path d="M141.77,204.16c24.1,32.45,35.81,84,35.81,84" fill="none" stroke="#3b7bf2" stroke-linecap="round" stroke-linejoin="round" stroke-width="2"/>
                <path d="M125.73,196.22c6.54,7.51,17.16,9,17.16,9s0-10.72-6.53-18.22-17.17-9-17.17-9,0,10.72,6.54,18.22" fill="#76abff"/>
                <path d="M153.17,206.54c-2.69,9.58,1.91,19.27,1.91,19.27s9-5.86,11.67-15.45-1.91-19.27-1.91-19.27-9,5.86-11.67,15.45" fill="#3b7bf2"/>
                <path d="M135.82,227.71c9.59,2.7,19.26-1.91,19.26-1.91s-5.86-9-15.45-11.67S120.37,216,120.37,216s5.87,9,15.45,11.67" fill="#3b7bf2"/>
                <path d="M166.1,232.52c-3.41,9.36.47,19.35,0.47,19.35s9.39-5.18,12.79-14.53S178.89,218,178.89,218s-9.39,5.18-12.79,14.53" fill="#1553b7"/>
                <path d="M147.22,252.35c9.36,3.4,19.35-.47,19.35-0.47s-5.18-9.39-14.54-12.79-19.35.47-19.35,0.47,5.18,9.39,14.54,12.79" fill="#1553b7"/>
                <animateTransform
                    id="bigLeafAppear"
                    attributeName="transform"
                    type="rotate"
                    begin="caseOpen.end"
                    dur="0.9s"
                    values="64, 178, 289; -10, 178, 289; 5, 178, 289; 0, 178, 289;"
                    calcMode="linear"
                />
                <animateTransform
                    attributeName="transform"
                    type="rotate"
                    begin="bigLeafAppear.end"
                    dur="1.3s"
                    values="0, 178, 289; -3, 178, 289; 0, 178, 289; 3, 178, 289; 0, 178, 289"
                    calcMode="linear"
                    repeatCount="indefinite"
                />
            </g>
            <g id="smallLeaf">
                <path d="M183.79,264.77c2.3,9.1-2.27,18.12-2.27,18.12s-8.32-5.74-10.63-14.85,2.27-18.12,2.27-18.12,8.32,5.75,10.63,14.85" fill="#3b7bf2"/>
                <path d="M199.63,285.16c-9.11,2.31-18.12-2.27-18.12-2.27s5.74-8.32,14.85-10.63,18.12,2.27,18.12,2.27-5.75,8.32-14.85,10.63" fill="#3b7bf2"/>
                <path d="M188.56,271.67a144.15,144.15,0,0,0-10.31,16.61" fill="none" stroke="#3b7bf2" stroke-linecap="round" stroke-linejoin="round" stroke-width="2"/>
                <path d="M203.69,264.19c-6.17,7.08-16.19,8.44-16.19,8.44s0-10.11,6.16-17.18S209.85,247,209.85,247s0,10.11-6.16,17.19" fill="#76abff"/>
                <animateTransform
                    id="smallLeafAppear"
                    attributeName="transform"
                    type="rotate"
                    begin="caseOpen.end"
                    dur="1.4s"
                    values="40, 174, 295; -15, 174, 295; 5, 174, 295; -3, 174, 295; 0, 174, 295;"
                    calcMode="paced"
                />
                <animateTransform
                    attributeName="transform"
                    type="rotate"
                    begin="smallLeafAppear.end"
                    dur="1.3s"
                    values="0, 174, 295; 3, 174, 295; 0, 174, 295; -3, 174, 295; 0, 174, 295;"
                    calcMode="linear"
                    repeatCount="indefinite"
                />
            </g>
            <animate
                attributeName="opacity"
                begin="caseOpen.end"
                dur="0.01s"
                from="0"
                to="1"
                fill="freeze"
            />
        </g>
        <circle cx="178" cy="289" r="1" fill="red"/>
        <g id="caseBottom">
            <path d="M280.29,318.62a5.72,5.72,0,1,0-5.12-5.69,5.43,5.43,0,0,0,5.12,5.69" fill="#a67ee5"/>
            <ellipse cx="280.29" cy="312.93" rx="5.12" ry="5.69" fill="none" stroke="#fff" stroke-miterlimit="10" stroke-width="2"/>
            <path d="M230.22,328.86h-148a11.85,11.85,0,0,1-11.95-11.67V289H242.16v28.17a11.84,11.84,0,0,1-11.94,11.67" fill="#a67ee5"/>
            <path d="M230.22,328.86h-148a11.85,11.85,0,0,1-11.95-11.67V289H242.16v28.17A11.84,11.84,0,0,1,230.22,328.86Z" fill="none" stroke="#fff" stroke-miterlimit="10" stroke-width="2"/>
            <path d="M266.72,328.86h-147a11.81,11.81,0,0,1-11.87-11.67V289H278.58v28.17a11.79,11.79,0,0,1-11.86,11.67" fill="#a67ee5"/>
            <path d="M266.72,328.86h-147a11.81,11.81,0,0,1-11.87-11.67V289H278.58v28.17A11.79,11.79,0,0,1,266.72,328.86Z" fill="none" stroke="#fff" stroke-miterlimit="10" stroke-width="2"/>
            <path d="M215,314.07H180.49a4.27,4.27,0,0,1-4.35-4.16V298.21a1.24,1.24,0,0,1,1.27-1.22h2.88a1.25,1.25,0,0,1,1.27,1.22v10a1.33,1.33,0,0,0,1.35,1.29h29.71a1.33,1.33,0,0,0,1.35-1.29v-10a1.24,1.24,0,0,1,1.27-1.22h2.88a1.25,1.25,0,0,1,1.27,1.22V309.9a4.27,4.27,0,0,1-4.35,4.16" fill="#a67ee5"/>
            <path d="M215,314.07H180.49a4.27,4.27,0,0,1-4.35-4.16V298.21a1.24,1.24,0,0,1,1.27-1.22h2.88a1.25,1.25,0,0,1,1.27,1.22v10a1.33,1.33,0,0,0,1.35,1.29h29.71a1.33,1.33,0,0,0,1.35-1.29v-10a1.24,1.24,0,0,1,1.27-1.22h2.88a1.25,1.25,0,0,1,1.27,1.22V309.9A4.27,4.27,0,0,1,215,314.07Z" fill="none" stroke="#fff" stroke-miterlimit="10" stroke-width="2"/>
            <rect x="138.58" y="282.19" width="9.1" height="12.52" fill="#a67ee5"/>
            <rect x="138.58" y="282.19" width="9.1" height="12.52" fill="none" stroke="#fff" stroke-miterlimit="10" stroke-width="2"/>
            <rect x="247.85" y="282.19" width="9.1" height="12.52" fill="#a67ee5"/>
            <rect x="247.85" y="282.19" width="9.1" height="12.52" fill="none" stroke="#fff" stroke-miterlimit="10" stroke-width="2"/>
            <path d="M278.58,317.11v-9.87h-10.4a5.67,5.67,0,0,0-5.53,5.8v15.82h4.73c6.16,0,11.2-5.29,11.2-11.75" fill="#a67ee5"/>
            <path d="M278.58,317.11v-9.87h-10.4a5.67,5.67,0,0,0-5.53,5.8v15.82h4.73C273.54,328.86,278.58,323.58,278.58,317.11Z" fill="none" stroke="#fff" stroke-miterlimit="10" stroke-width="2"/>
            <path d="M100,301.54H79.22a1,1,0,0,1-1-1V298a1,1,0,0,1,1-1H100a1,1,0,0,1,1,1v2.58a1,1,0,0,1-1,1" fill="#a67ee5"/>
            <path d="M100,301.54H79.22a1,1,0,0,1-1-1V298a1,1,0,0,1,1-1H100a1,1,0,0,1,1,1v2.58A1,1,0,0,1,100,301.54Z" fill="none" stroke="#fff" stroke-miterlimit="10" stroke-width="2"/>
        </g>
        <g id="ground">
            <line x1="46.24" y1="329" x2="303.76" y2="329" fill="none" stroke="#fff" stroke-linecap="round" stroke-linejoin="round" stroke-width="2"/>
        </g>
    </g>
</svg>
