<svg xmlns="http://www.w3.org/2000/svg" xmlns:xlink="http://www.w3.org/1999/xlink" viewBox="0 0 350 330">
    <defs>
        <path id="keel-top" fill="#068e4d" stroke="#fff" stroke-linecap="round" stroke-linejoin="round" stroke-width="2" d="M123.23,173.34h9.16a3.29,3.29,0,0,1,3.29,3.3v5.71a3.29,3.29,0,0,1-3.29,3.3H115.57a1.32,1.32,0,0,1-1.32-1.32v-2a9,9,0,0,1,9-9">
            <animateTransform
                begin="0"
                attributeName="transform"
                type="translate"
                values="0 0; 0, -2; 0 0; 0, 2; 0 0"
                dur="2s"
                repeatCount="indefinite"
                additive="sum"
            />
        </path>
        <path id="keel-bottom" fill="#068e4d" stroke="#fff" stroke-linecap="round" stroke-linejoin="round" stroke-width="2" d="M123.23,207.39h9.16a3.29,3.29,0,0,0,3.29-3.3v-5.71a3.29,3.29,0,0,0-3.29-3.3H115.57a1.32,1.32,0,0,0-1.32,1.32v2a9,9,0,0,0,9,9">
            <animateTransform
                begin="0"
                attributeName="transform"
                type="translate"
                values="0 0; 0, -2; 0 0; 0, 2; 0 0"
                dur="2s"
                repeatCount="indefinite"
                additive="sum"
            />
        </path>
    </defs>

    <g id="dirigible">
        <g id="gondola">
            <path d="M175.44,249.28h48.36a13.27,13.27,0,0,0,13-10.65l3.74-18.32H172.36v25.89A3.09,3.09,0,0,0,175.44,249.28Z" fill="none" stroke="#fff" stroke-linecap="round" stroke-linejoin="round" stroke-width="2"/>
            <path d="M235.79,241.69h-9.22a8.31,8.31,0,0,1-8.28-8.31V220.31" fill="none" stroke="#fff" stroke-linecap="round" stroke-miterlimit="10" stroke-width="2"/>
            <path d="M204.25,231.88h-2.05a3.45,3.45,0,0,0-3.43,3.45v2.92a3.45,3.45,0,0,0,3.43,3.45h2.05a3.45,3.45,0,0,0,3.43-3.45v-2.92A3.44,3.44,0,0,0,204.25,231.88Z" fill="none" stroke="#fff" stroke-linecap="round" stroke-linejoin="round" stroke-width="2"/>
            <path d="M185.64,231.88h-2.05a3.45,3.45,0,0,0-3.43,3.45v2.92a3.45,3.45,0,0,0,3.43,3.45h2.05a3.45,3.45,0,0,0,3.43-3.45v-2.92A3.45,3.45,0,0,0,185.64,231.88Z" fill="none" stroke="#fff" stroke-linecap="round" stroke-linejoin="round" stroke-width="2"/>

            <animateTransform
                attributeName="transform"
                type="skewX"
                values="0; -1.5; 0; 1.5; 0"
                dur="2s"
                begin="0"
                repeatCount="indefinite"
                additive="sum"
            />
            <animateTransform
                attributeName="transform"
                type="translate"
                values="0,0; 5,-1.5; 0,0; -5,-1.5; 0,0"
                dur="2s"
                begin="0"
                repeatCount="indefinite"
                additive="sum"
            />
        </g>
        <g id="balloon">
            <use xlink:href="#keel-top" />
            <use xlink:href="#keel-bottom" />

            <path d="M205,227.08c43.38,0,74.86-15.55,74.86-37s-31.48-37-74.86-37c-27.94,0-55.36,13.53-73.46,24.87a14.3,14.3,0,0,0,0,24.21c18.09,11.33,45.52,24.87,73.46,24.87" fill="#068e4d"/>
            <path d="M205,227.08c43.38,0,74.86-15.55,74.86-37s-31.48-37-74.86-37c-27.94,0-55.36,13.53-73.46,24.87a14.3,14.3,0,0,0,0,24.21C149.63,213.54,177.06,227.08,205,227.08Z" fill="none" stroke="#fff" stroke-width="2"/>

            <path d="M126,190.2a12.93,12.93,0,016.07-11.43c16.74-10.5,44.58-24.68,72.81-24.68,44.81,0,73.64,16,73.64,35.75v.37" fill="#36e69a"/>

            <path d="M132.18,195.12c16.74,4.27,44.58,10,72.81,10,44.14,0,72.75-6.32,73.6-14.18-0.86,19.34-29.45,34.86-73.6,34.86-28.23,0-56.07-14.19-72.81-24.68a12.88,12.88,0,0,1-6-10.18c0.26,1.61,2.26,3.18,6,4.14" fill="#068e4d"/>

            <path d="M132.18,186.12c16.74-4.27,44.58-10,72.81-10,44.53,0,73.26,6.43,73.61,14.38v.51c-.85,7.86-29.45,14.17-73.6,14.17-28.23,0-56.07-5.76-72.81-10-3.79-1-5.79-2.53-6-4.13v-.51c.13-1.69,2.15-3.36,6.1-4.37" fill="#25b774">
                <animate
                    dur="2s"
                    attributeName="d"
                    values="
                      M132.18,186.12c16.74-4.27,44.58-10,72.81-10,44.53,0,73.26,6.43,73.61,14.38v.51c-.85,7.86-29.45,14.17-73.6,14.17-28.23,0-56.07-5.76-72.81-10-3.79-1-5.79-2.53-6-4.13v-.51c.13-1.69,2.15-3.36,6.1-4.37;
                      M132.18,186.12c17.25-2.7,44.58-6.63,72.81-6.63,44.53,0,69,3.7,73.61,11.01v.51c-.85,7.86-29.45,18.93-73.6,18.93-28.23,0-58.08-8.71-72.81-14.76-3.63-1.49-5.79-2.53-6-4.13v-.51c.13-1.69,2.15-3.36,6.1-4.37;
                      M132.18,186.12c16.74-4.27,44.58-10,72.81-10,44.53,0,73.26,6.43,73.61,14.38v.51c-.85,7.86-29.45,14.17-73.6,14.17-28.23,0-56.07-5.76-72.81-10-3.79-1-5.79-2.53-6-4.13v-.51c.13-1.69,2.15-3.36,6.1-4.37;
                      M132.18,186.12c15.2-6.63,44.58-15.72,72.81-15.72,44.53,0,73.26,12.15,73.61,20.1v.51c-4.28,7.86-30.9,10.22-73.6,10.22-28.23,0-57.4-3.86-72.81-6.05-3.88-.55-5.79-2.53-6-4.13v-.51c.13-1.69,2.15-3.36,6.1-4.37;
                      M132.18,186.12c16.74-4.27,44.58-10,72.81-10,44.53,0,73.26,6.43,73.61,14.38v.51c-.85,7.86-29.45,14.17-73.6,14.17-28.23,0-56.07-5.76-72.81-10-3.79-1-5.79-2.53-6-4.13v-.51c.13-1.69,2.15-3.36,6.1-4.37;
                     "
                    repeatCount="indefinite"
                    fill="freeze"
                />
            </path>

            <use xlink:href="#keel-top" transform="scale(1, -1) translate(0,-380)" />
            <use xlink:href="#keel-bottom" transform="scale(1, -1) translate(0,-380)" />
        </g>
    </g>
    <g id="clouds-left">
        <line x1="68.95" y1="107.8" x2="131.86" y2="107.8" fill="none" stroke="#fff" stroke-linecap="round" stroke-miterlimit="10" stroke-width="2">
            <animate
                begin="0s"
                attributeName="stroke-opacity"
                dur="2s"
                values="0; 1; 1; 0"
                keyTimes="0; 0.1; 0.8; 1"
                fill="freeze"
            />
            <animateTransform
                begin="0s"
                attributeName="transform"
                type="translate"
                from="170"
                to="0"
                dur="2s"
                fill="freeze"
            />
        </line>
        <path d="M41.77,97.54H77.06a12.4,12.4,0,1,1,24.8,0h17.93" fill="none" stroke="#fff" stroke-linecap="round" stroke-miterlimit="10" stroke-width="2">
            <animate
                begin="0s"
                attributeName="stroke-opacity"
                dur="2s"
                values="0; 1; 1; 0"
                keyTimes="0; 0.1; 0.8; 1"
                fill="freeze"
            />
            <animateTransform
                begin="0s"
                attributeName="transform"
                type="translate"
                from="170"
                to="-5"
                dur="2s"
                fill="freeze"
            />
        </path>
    </g>
    <g id="clouds-right">
        <line x1="258.96" y1="93.19" x2="298.74" y2="93.19" fill="none" stroke="#fff" stroke-linecap="round" stroke-miterlimit="10" stroke-width="2" stroke-opacity="0">
            <animate
                begin="1.6s"
                attributeName="stroke-opacity"
                dur="2s"
                values="0; 1; 1; 0"
                keyTimes="0; 0.1; 0.85; 1"
                fill="freeze"
            />
            <animateTransform
                begin="1.6s"
                attributeName="transform"
                type="translate"
                from="0"
                to="-160"
                dur="3s"
                fill="freeze"
            />
        </line>
        <g>
            <path d="M278.75,82.91H251.39a12.4,12.4,0,1,0-24.8,0H208.65" fill="none" stroke="#fff" stroke-linecap="round" stroke-miterlimit="10" stroke-width="2" stroke-opacity="0">
                <animate
                    begin="1.6s"
                    attributeName="stroke-opacity"
                    dur="2s"
                    values="0; 1; 1; 0"
                    keyTimes="0; 0.1; 0.85; 1"
                    fill="freeze"
                />
                <animateTransform
                    begin="1.6s"
                    attributeName="transform"
                    type="translate"
                    from="0"
                    to="-170"
                    dur="2s"
                    fill="freeze"
                />
            </path>
            <line x1="287.01" y1="82.91" x2="309.21" y2="82.91" fill="none" stroke="#fff" stroke-linecap="round" stroke-miterlimit="10" stroke-width="2" stroke-opacity="0">
                <animate
                    begin="1.6s"
                    attributeName="stroke-opacity"
                    dur="2s"
                    values="0; 1; 1; 0"
                    keyTimes="0; 0.1; 0.85; 1"
                    fill="freeze"
                />
                <animateTransform
                    begin="1.6s"
                    attributeName="transform"
                    type="translate"
                    from="0"
                    to="-170"
                    dur="2s"
                    fill="freeze"
                />
            </line>
        </g>
    </g>
    <g id="dirigible-trace">
        <line x1="106.25" y1="179.49" x2="84.05" y2="179.49" fill="none" stroke="#fff" stroke-linecap="round" stroke-miterlimit="10" stroke-width="2">
            <animate
                begin="-0.1s"
                attributeName="x2"
                values="84; 81; 84"
                dur="0.3s"
                repeatCount="indefinite"
            />
        </line>
        <line x1="106.25" y1="201.23" x2="84.05" y2="201.23" fill="none" stroke="#fff" stroke-linecap="round" stroke-miterlimit="10" stroke-width="2">
            <animate
                begin="0.1s"
                attributeName="x2"
                values="81; 84; 81"
                dur="0.3s"
                repeatCount="indefinite"
            />
        </line>
        <line x1="106.25" y1="190.98" x2="68.77" y2="190.98" fill="none" stroke="#fff" stroke-linecap="round" stroke-miterlimit="10" stroke-width="2">
            <animate
                begin="0s"
                attributeName="x2"
                values="64; 68; 64"
                dur="0.3s"
                repeatCount="indefinite"
            />
        </line>
    </g>
    <g id="mountains">
        <path d="M289.94,327.88H244.88L212.8,296.58a1.89,1.89,0,0,0-2.44,0l-10.2,10.23a1.72,1.72,0,0,1-2.25,0l-19-20.17a2.4,2.4,0,0,0-3.1,0l-26.42,25.64a1.71,1.71,0,0,1-2.25,0l-2.63-2.92a1.71,1.71,0,0,0-2.31,0L124.63,329H80.78" fill="none" stroke="#fff" stroke-linecap="round" stroke-miterlimit="10" stroke-width="2"/>
        <path d="M289.94,328H200.15c-0.86,0-1.56,0-2.25,0h-19c-1.5,0-2.23,0-3.1,0h-32.3c-1.09,0-1.66,0-2.31,0H80.78" fill="none" stroke="#fff" stroke-linecap="round" stroke-miterlimit="10" stroke-width="2"/>
    </g>
</svg>
